<svg width="64px" height="64px" viewBox="0 0 64 64" id="wizard" xmlns="http://www.w3.org/2000/svg"><title>wizard</title><circle cx="33" cy="23" r="23" style="fill:#edebdc"/><line x1="7" y1="17" x2="7" y2="19" style="fill:none;stroke:#4c241d;stroke-linecap:round;stroke-linejoin:round;stroke-width:2px"/><line x1="7" y1="23" x2="7" y2="25" style="fill:none;stroke:#4c241d;stroke-linecap:round;stroke-linejoin:round;stroke-width:2px"/><path d="M21.778,47H47.222A8.778,8.778,0,0,1,56,55.778V61a0,0,0,0,1,0,0H13a0,0,0,0,1,0,0V55.778A8.778,8.778,0,0,1,21.778,47Z" style="fill:#9dc1e4;stroke:#4c241d;stroke-linecap:round;stroke-linejoin:round;stroke-width:2px"/><polygon points="32 61 28 61 34 49 38 49 32 61" style="fill:#fff;stroke:#4c241d;stroke-linecap:round;stroke-linejoin:round;stroke-width:2px"/><path d="M59,39H11v4.236A5.763,5.763,0,0,0,16.764,49L34,55l19.236-6A5.763,5.763,0,0,0,59,43.236Z" style="fill:#9dc1e4;stroke:#4c241d;stroke-linecap:round;stroke-linejoin:round;stroke-width:2px"/><line x1="3" y1="21" x2="5" y2="21" style="fill:none;stroke:#4c241d;stroke-linecap:round;stroke-linejoin:round;stroke-width:2px"/><line x1="9" y1="21" x2="11" y2="21" style="fill:none;stroke:#4c241d;stroke-linecap:round;stroke-linejoin:round;stroke-width:2px"/><circle cx="55.5" cy="6.5" r="2.5" style="fill:none;stroke:#4c241d;stroke-linecap:round;stroke-linejoin:round;stroke-width:2px"/><circle cx="13.984" cy="6.603" r="1.069" style="fill:#4c241d"/><ellipse cx="35" cy="39" rx="24" ry="6" style="fill:#6b4f5b;stroke:#4c241d;stroke-linecap:round;stroke-linejoin:round;stroke-width:2px"/><circle cx="5.984" cy="30.603" r="1.069" style="fill:#4c241d"/><path d="M48,13V10.143A6.143,6.143,0,0,0,41.857,4H27.143A6.143,6.143,0,0,0,21,10.143V13" style="fill:#9dc1e4;stroke:#4c241d;stroke-linecap:round;stroke-linejoin:round;stroke-width:2px"/><rect x="20" y="17.81" width="29" height="14.19" style="fill:#ffe8dc;stroke:#4c241d;stroke-linecap:round;stroke-linejoin:round;stroke-width:2px"/><path d="M41.972,13H48a4,4,0,0,1,4,4h0a4,4,0,0,1-4,4H21a4,4,0,0,1-4-4h0a4,4,0,0,1,4-4H37" style="fill:#fff;stroke:#4c241d;stroke-linecap:round;stroke-linejoin:round;stroke-width:2px"/><circle cx="39.5" cy="25.5" r="1.136" style="fill:#4c241d"/><circle cx="29.5" cy="25.5" r="1.136" style="fill:#4c241d"/><path d="M43.875,32a6.472,6.472,0,0,0-5.219-2.2A5.2,5.2,0,0,0,35,31.974,5.2,5.2,0,0,0,31.344,29.8,6.472,6.472,0,0,0,26.125,32H20v4.5a14.5,14.5,0,0,0,29,0V32Z" style="fill:#fff;stroke:#4c241d;stroke-linecap:round;stroke-linejoin:round;stroke-width:2px"/><line x1="33" y1="36" x2="37" y2="36" style="fill:none;stroke:#4c241d;stroke-linecap:round;stroke-linejoin:round;stroke-width:2px"/><rect x="32" y="10" width="5" height="5" transform="translate(1.266 28.056) rotate(-45)" style="fill:#bd53b5;stroke:#4c241d;stroke-linecap:round;stroke-linejoin:round;stroke-width:2px"/></svg>